<?xml version="1.0" encoding="utf-8"?>
<!-- Generator: Adobe Illustrator 18.1.1, SVG Export Plug-In . SVG Version: 6.00 Build 0)  -->
<svg version="1.1" xmlns="http://www.w3.org/2000/svg" xmlns:xlink="http://www.w3.org/1999/xlink" x="0px" y="0px"
	 viewBox="0 0 50 200.1" style="enable-background:new 0 0 50 200.1;" xml:space="preserve">
<style type="text/css">
	.st0{fill:#414042;}
	.st1{fill:#FFFFFF;}
	.st2{fill:#1E1E1E;}
	.st3{fill:#333333;}
</style>
<g id="Layer_2">
	<g>
		<g>
			<path class="st0" d="M50,146c0,2.2-1.8,4-4,4H4.1c-2.2,0-4-1.8-4-4v-42c0-2.2,1.8-4,4-4H46c2.2,0,4,1.8,4,4V146z"/>
		</g>
	</g>
	<g>
		<g>
			<path class="st0" d="M49.9,196c0,2.2-1.8,4-4,4H4c-2.2,0-4-1.8-4-4v-42c0-2.2,1.8-4,4-4h41.9c2.2,0,4,1.8,4,4V196z"/>
		</g>
	</g>
	<g>
		<g>
			<path class="st1" d="M49.9,46c0,2.2-1.8,4-4,4H4c-2.2,0-4-1.8-4-4V4c0-2.2,1.8-4,4-4h41.9c2.2,0,4,1.8,4,4V46z"/>
		</g>
	</g>
	<g>
		<path class="st2" d="M49.9,96.1c0,2.2-1.8,4-4,4H4c-2.2,0-4-1.8-4-4v-42c0-2.2,1.8-4,4-4h41.9c2.2,0,4,1.8,4,4V96.1z"/>
	</g>
</g>
<g id="Layer_3">
</g>
<g id="Layer_1">
	<g>
		<path class="st3" d="M31.3,14.9c-0.4-0.4-1-0.4-1.4,0l-4.2,4.3l1.4,1.4l4.2-4.3C31.7,15.9,31.7,15.3,31.3,14.9z"/>
		<path class="st3" d="M15,31.2c0.4,0.4,1,0.4,1.4,0l9.9-9.9l-1.4-1.4L15,29.8C14.6,30.2,14.6,30.8,15,31.2z"/>
		<polygon class="st3" points="31.1,10 30.6,8 30.1,10 28.1,10.5 30.1,11 30.6,13 31.1,11 33.1,10.5 			"/>
		<polygon class="st3" points="35.2,13.4 34.7,15.4 32.7,15.9 34.7,16.4 35.2,18.4 35.7,16.4 37.7,15.9 35.7,15.4 			"/>
		<polygon class="st3" points="32.4,20.6 31.9,22.5 30,22.9 31.9,23.4 32.4,25.3 32.8,23.4 34.7,22.9 32.8,22.5 			"/>
		<polygon class="st3" points="23.9,13.8 27.3,13 23.9,12.1 23.1,8.7 22.2,12.1 18.8,13 22.2,13.8 23.1,17.2 			"/>
	</g>
	<g>
		<path class="st3" d="M13,37.4c-0.1-0.1-0.2-0.1-0.3-0.2c-0.1-0.1-0.3-0.1-0.4-0.2c-0.2-0.1-0.3-0.1-0.5-0.2s-0.4-0.1-0.6-0.1
			c-0.4,0-0.8,0.1-1,0.2s-0.3,0.4-0.3,0.6c0,0.2,0,0.3,0.1,0.4s0.2,0.2,0.3,0.3c0.1,0.1,0.3,0.1,0.5,0.2c0.2,0.1,0.4,0.1,0.7,0.2
			c0.3,0.1,0.6,0.2,0.9,0.3c0.3,0.1,0.5,0.2,0.7,0.3c0.2,0.1,0.3,0.3,0.4,0.5c0.1,0.2,0.2,0.4,0.2,0.7c0,0.3-0.1,0.6-0.2,0.8
			s-0.3,0.4-0.5,0.6s-0.5,0.3-0.8,0.3s-0.6,0.1-0.9,0.1c-0.5,0-1-0.1-1.5-0.2s-0.9-0.4-1.3-0.6L9,40.6c0.1,0.1,0.2,0.2,0.4,0.3
			c0.2,0.1,0.3,0.2,0.5,0.3c0.2,0.1,0.4,0.1,0.7,0.2c0.2,0.1,0.5,0.1,0.7,0.1c0.4,0,0.7-0.1,1-0.2s0.3-0.3,0.3-0.6
			c0-0.2,0-0.3-0.1-0.4S12.2,40,12.1,40c-0.2-0.1-0.3-0.2-0.6-0.2c-0.2-0.1-0.5-0.1-0.8-0.2c-0.3-0.1-0.6-0.2-0.9-0.3
			c-0.2-0.1-0.4-0.2-0.6-0.3c-0.2-0.1-0.3-0.3-0.4-0.5c-0.1-0.2-0.1-0.4-0.1-0.6c0-0.3,0.1-0.6,0.2-0.8s0.3-0.4,0.5-0.6
			c0.2-0.2,0.5-0.3,0.8-0.4c0.3-0.1,0.6-0.1,1-0.1c0.4,0,0.9,0.1,1.2,0.2s0.7,0.3,1,0.5L13,37.4z"/>
		<path class="st3" d="M14.7,42.3V36h2.8c0.3,0,0.6,0.1,0.8,0.2c0.3,0.1,0.5,0.3,0.6,0.5s0.3,0.4,0.4,0.7c0.1,0.2,0.2,0.5,0.2,0.8
			c0,0.3,0,0.5-0.1,0.8s-0.2,0.5-0.4,0.7s-0.4,0.3-0.6,0.5s-0.5,0.2-0.8,0.2h-1.8v2.2H14.7z M15.8,39.2h1.7c0.1,0,0.3,0,0.4-0.1
			c0.1-0.1,0.2-0.1,0.3-0.2c0.1-0.1,0.2-0.2,0.2-0.4s0.1-0.3,0.1-0.5c0-0.2,0-0.3-0.1-0.5s-0.1-0.3-0.2-0.4S18,37,17.9,36.9
			c-0.1-0.1-0.3-0.1-0.4-0.1h-1.7V39.2z"/>
		<path class="st3" d="M25.1,41.4v0.9h-4.5V36H25v0.9h-3.4v1.8h3v0.8h-3v1.9H25.1z"/>
		<path class="st3" d="M26.2,42.3V36h1v5.4h3.6v0.9H26.2z"/>
		<path class="st3" d="M31.6,42.3V36h1v5.4h3.6v0.9H31.6z"/>
		<path class="st3" d="M41,37.4c-0.1-0.1-0.2-0.1-0.3-0.2c-0.1-0.1-0.3-0.1-0.4-0.2c-0.2-0.1-0.3-0.1-0.5-0.2s-0.4-0.1-0.6-0.1
			c-0.4,0-0.8,0.1-1,0.2s-0.3,0.4-0.3,0.6c0,0.2,0,0.3,0.1,0.4s0.2,0.2,0.3,0.3c0.1,0.1,0.3,0.1,0.5,0.2c0.2,0.1,0.4,0.1,0.7,0.2
			c0.3,0.1,0.6,0.2,0.9,0.3c0.3,0.1,0.5,0.2,0.7,0.3c0.2,0.1,0.3,0.3,0.4,0.5c0.1,0.2,0.2,0.4,0.2,0.7c0,0.3-0.1,0.6-0.2,0.8
			s-0.3,0.4-0.5,0.6s-0.5,0.3-0.8,0.3s-0.6,0.1-0.9,0.1c-0.5,0-1-0.1-1.5-0.2s-0.9-0.4-1.3-0.6l0.5-0.9c0.1,0.1,0.2,0.2,0.4,0.3
			c0.2,0.1,0.3,0.2,0.5,0.3c0.2,0.1,0.4,0.1,0.7,0.2c0.2,0.1,0.5,0.1,0.7,0.1c0.4,0,0.7-0.1,1-0.2s0.3-0.3,0.3-0.6
			c0-0.2,0-0.3-0.1-0.4S40.3,40,40.1,40c-0.2-0.1-0.3-0.2-0.6-0.2c-0.2-0.1-0.5-0.1-0.8-0.2c-0.3-0.1-0.6-0.2-0.9-0.3
			c-0.2-0.1-0.4-0.2-0.6-0.3c-0.2-0.1-0.3-0.3-0.4-0.5c-0.1-0.2-0.1-0.4-0.1-0.6c0-0.3,0.1-0.6,0.2-0.8s0.3-0.4,0.5-0.6
			c0.2-0.2,0.5-0.3,0.8-0.4c0.3-0.1,0.6-0.1,1-0.1c0.4,0,0.9,0.1,1.2,0.2s0.7,0.3,1,0.5L41,37.4z"/>
	</g>
	<g>
		<path class="st3" d="M31.3,14.9c-0.4-0.4-1-0.4-1.4,0l-4.2,4.3l1.4,1.4l4.2-4.3C31.7,15.9,31.7,15.3,31.3,14.9z"/>
		<path class="st3" d="M15,31.2c0.4,0.4,1,0.4,1.4,0l9.9-9.9l-1.4-1.4L15,29.8C14.6,30.2,14.6,30.8,15,31.2z"/>
		<polygon class="st3" points="31.1,10 30.6,8 30.1,10 28.1,10.5 30.1,11 30.6,13 31.1,11 33.1,10.5 			"/>
		<polygon class="st3" points="35.2,13.4 34.7,15.4 32.7,15.9 34.7,16.4 35.2,18.4 35.7,16.4 37.7,15.9 35.7,15.4 			"/>
		<polygon class="st3" points="32.4,20.6 31.9,22.5 30,22.9 31.9,23.4 32.4,25.3 32.8,23.4 34.7,22.9 32.8,22.5 			"/>
		<polygon class="st3" points="23.9,13.8 27.3,13 23.9,12.1 23.1,8.7 22.2,12.1 18.8,13 22.2,13.8 23.1,17.2 			"/>
	</g>
	<g>
		<path class="st3" d="M13,37.4c-0.1-0.1-0.2-0.1-0.3-0.2c-0.1-0.1-0.3-0.1-0.4-0.2c-0.2-0.1-0.3-0.1-0.5-0.2s-0.4-0.1-0.6-0.1
			c-0.4,0-0.8,0.1-1,0.2s-0.3,0.4-0.3,0.6c0,0.2,0,0.3,0.1,0.4s0.2,0.2,0.3,0.3c0.1,0.1,0.3,0.1,0.5,0.2c0.2,0.1,0.4,0.1,0.7,0.2
			c0.3,0.1,0.6,0.2,0.9,0.3c0.3,0.1,0.5,0.2,0.7,0.3c0.2,0.1,0.3,0.3,0.4,0.5c0.1,0.2,0.2,0.4,0.2,0.7c0,0.3-0.1,0.6-0.2,0.8
			s-0.3,0.4-0.5,0.6s-0.5,0.3-0.8,0.3s-0.6,0.1-0.9,0.1c-0.5,0-1-0.1-1.5-0.2s-0.9-0.4-1.3-0.6L9,40.6c0.1,0.1,0.2,0.2,0.4,0.3
			c0.2,0.1,0.3,0.2,0.5,0.3c0.2,0.1,0.4,0.1,0.7,0.2c0.2,0.1,0.5,0.1,0.7,0.1c0.4,0,0.7-0.1,1-0.2s0.3-0.3,0.3-0.6
			c0-0.2,0-0.3-0.1-0.4S12.2,40,12.1,40c-0.2-0.1-0.3-0.2-0.6-0.2c-0.2-0.1-0.5-0.1-0.8-0.2c-0.3-0.1-0.6-0.2-0.9-0.3
			c-0.2-0.1-0.4-0.2-0.6-0.3c-0.2-0.1-0.3-0.3-0.4-0.5c-0.1-0.2-0.1-0.4-0.1-0.6c0-0.3,0.1-0.6,0.2-0.8s0.3-0.4,0.5-0.6
			c0.2-0.2,0.5-0.3,0.8-0.4c0.3-0.1,0.6-0.1,1-0.1c0.4,0,0.9,0.1,1.2,0.2s0.7,0.3,1,0.5L13,37.4z"/>
		<path class="st3" d="M14.7,42.3V36h2.8c0.3,0,0.6,0.1,0.8,0.2c0.3,0.1,0.5,0.3,0.6,0.5s0.3,0.4,0.4,0.7c0.1,0.2,0.2,0.5,0.2,0.8
			c0,0.3,0,0.5-0.1,0.8s-0.2,0.5-0.4,0.7s-0.4,0.3-0.6,0.5s-0.5,0.2-0.8,0.2h-1.8v2.2H14.7z M15.8,39.2h1.7c0.1,0,0.3,0,0.4-0.1
			c0.1-0.1,0.2-0.1,0.3-0.2c0.1-0.1,0.2-0.2,0.2-0.4s0.1-0.3,0.1-0.5c0-0.2,0-0.3-0.1-0.5s-0.1-0.3-0.2-0.4S18,37,17.9,36.9
			c-0.1-0.1-0.3-0.1-0.4-0.1h-1.7V39.2z"/>
		<path class="st3" d="M25.1,41.4v0.9h-4.5V36H25v0.9h-3.4v1.8h3v0.8h-3v1.9H25.1z"/>
		<path class="st3" d="M26.2,42.3V36h1v5.4h3.6v0.9H26.2z"/>
		<path class="st3" d="M31.6,42.3V36h1v5.4h3.6v0.9H31.6z"/>
		<path class="st3" d="M41,37.4c-0.1-0.1-0.2-0.1-0.3-0.2c-0.1-0.1-0.3-0.1-0.4-0.2c-0.2-0.1-0.3-0.1-0.5-0.2s-0.4-0.1-0.6-0.1
			c-0.4,0-0.8,0.1-1,0.2s-0.3,0.4-0.3,0.6c0,0.2,0,0.3,0.1,0.4s0.2,0.2,0.3,0.3c0.1,0.1,0.3,0.1,0.5,0.2c0.2,0.1,0.4,0.1,0.7,0.2
			c0.3,0.1,0.6,0.2,0.9,0.3c0.3,0.1,0.5,0.2,0.7,0.3c0.2,0.1,0.3,0.3,0.4,0.5c0.1,0.2,0.2,0.4,0.2,0.7c0,0.3-0.1,0.6-0.2,0.8
			s-0.3,0.4-0.5,0.6s-0.5,0.3-0.8,0.3s-0.6,0.1-0.9,0.1c-0.5,0-1-0.1-1.5-0.2s-0.9-0.4-1.3-0.6l0.5-0.9c0.1,0.1,0.2,0.2,0.4,0.3
			c0.2,0.1,0.3,0.2,0.5,0.3c0.2,0.1,0.4,0.1,0.7,0.2c0.2,0.1,0.5,0.1,0.7,0.1c0.4,0,0.7-0.1,1-0.2s0.3-0.3,0.3-0.6
			c0-0.2,0-0.3-0.1-0.4S40.3,40,40.1,40c-0.2-0.1-0.3-0.2-0.6-0.2c-0.2-0.1-0.5-0.1-0.8-0.2c-0.3-0.1-0.6-0.2-0.9-0.3
			c-0.2-0.1-0.4-0.2-0.6-0.3c-0.2-0.1-0.3-0.3-0.4-0.5c-0.1-0.2-0.1-0.4-0.1-0.6c0-0.3,0.1-0.6,0.2-0.8s0.3-0.4,0.5-0.6
			c0.2-0.2,0.5-0.3,0.8-0.4c0.3-0.1,0.6-0.1,1-0.1c0.4,0,0.9,0.1,1.2,0.2s0.7,0.3,1,0.5L41,37.4z"/>
	</g>
	<g>
		<path class="st1" d="M31.3,64.8c-0.4-0.4-1-0.4-1.4,0l-4.2,4.3l1.4,1.4l4.2-4.3C31.7,65.8,31.7,65.2,31.3,64.8z"/>
		<path class="st1" d="M15,81.1c0.4,0.4,1,0.4,1.4,0l9.9-9.9l-1.4-1.4L15,79.7C14.6,80.1,14.6,80.7,15,81.1z"/>
		<polygon class="st1" points="31.1,59.9 30.6,57.9 30.1,59.9 28.1,60.4 30.1,60.9 30.6,62.9 31.1,60.9 33.1,60.4 			"/>
		<polygon class="st1" points="35.2,63.4 34.7,65.4 32.7,65.9 34.7,66.4 35.2,68.4 35.7,66.4 37.7,65.9 35.7,65.4 			"/>
		<polygon class="st1" points="32.4,70.5 31.9,72.4 30,72.9 31.9,73.3 32.4,75.2 32.8,73.3 34.7,72.9 32.8,72.4 			"/>
		<polygon class="st1" points="23.9,63.8 27.3,62.9 23.9,62.1 23.1,58.6 22.2,62.1 18.8,62.9 22.2,63.8 23.1,67.2 			"/>
	</g>
	<g>
		<path class="st1" d="M13,87.4c-0.1-0.1-0.2-0.1-0.3-0.2c-0.1-0.1-0.3-0.1-0.4-0.2c-0.2-0.1-0.3-0.1-0.5-0.2s-0.4-0.1-0.6-0.1
			c-0.4,0-0.8,0.1-1,0.2s-0.3,0.4-0.3,0.6c0,0.2,0,0.3,0.1,0.4s0.2,0.2,0.3,0.3c0.1,0.1,0.3,0.1,0.5,0.2c0.2,0.1,0.4,0.1,0.7,0.2
			c0.3,0.1,0.6,0.2,0.9,0.3c0.3,0.1,0.5,0.2,0.7,0.3c0.2,0.1,0.3,0.3,0.4,0.5c0.1,0.2,0.2,0.4,0.2,0.7c0,0.3-0.1,0.6-0.2,0.8
			s-0.3,0.4-0.5,0.6s-0.5,0.3-0.8,0.3s-0.6,0.1-0.9,0.1c-0.5,0-1-0.1-1.5-0.2s-0.9-0.4-1.3-0.6L9,90.6c0.1,0.1,0.2,0.2,0.4,0.3
			c0.2,0.1,0.3,0.2,0.5,0.3c0.2,0.1,0.4,0.1,0.7,0.2c0.2,0.1,0.5,0.1,0.7,0.1c0.4,0,0.7-0.1,1-0.2s0.3-0.3,0.3-0.6
			c0-0.2,0-0.3-0.1-0.4s-0.2-0.2-0.4-0.3c-0.2-0.1-0.3-0.2-0.6-0.2c-0.2-0.1-0.5-0.1-0.8-0.2c-0.3-0.1-0.6-0.2-0.9-0.3
			c-0.2-0.1-0.4-0.2-0.6-0.3c-0.2-0.1-0.3-0.3-0.4-0.5c-0.1-0.2-0.1-0.4-0.1-0.6c0-0.3,0.1-0.6,0.2-0.8s0.3-0.4,0.5-0.6
			c0.2-0.2,0.5-0.3,0.8-0.4c0.3-0.1,0.6-0.1,1-0.1c0.4,0,0.9,0.1,1.2,0.2s0.7,0.3,1,0.5L13,87.4z"/>
		<path class="st1" d="M14.7,92.2v-6.3h2.8c0.3,0,0.6,0.1,0.8,0.2c0.3,0.1,0.5,0.3,0.6,0.5s0.3,0.4,0.4,0.7
			c0.1,0.2,0.2,0.5,0.2,0.8c0,0.3,0,0.5-0.1,0.8s-0.2,0.5-0.4,0.7s-0.4,0.3-0.6,0.5S17.9,90,17.6,90h-1.8v2.2H14.7z M15.8,89.1h1.7
			c0.1,0,0.3,0,0.4-0.1c0.1-0.1,0.2-0.1,0.3-0.2c0.1-0.1,0.2-0.2,0.2-0.4s0.1-0.3,0.1-0.5c0-0.2,0-0.3-0.1-0.5s-0.1-0.3-0.2-0.4
			s-0.2-0.2-0.3-0.2c-0.1-0.1-0.3-0.1-0.4-0.1h-1.7V89.1z"/>
		<path class="st1" d="M25.1,91.3v0.9h-4.5v-6.3H25v0.9h-3.4v1.8h3v0.8h-3v1.9H25.1z"/>
		<path class="st1" d="M26.2,92.2v-6.3h1v5.4h3.6v0.9H26.2z"/>
		<path class="st1" d="M31.6,92.2v-6.3h1v5.4h3.6v0.9H31.6z"/>
		<path class="st1" d="M41,87.4c-0.1-0.1-0.2-0.1-0.3-0.2c-0.1-0.1-0.3-0.1-0.4-0.2c-0.2-0.1-0.3-0.1-0.5-0.2s-0.4-0.1-0.6-0.1
			c-0.4,0-0.8,0.1-1,0.2s-0.3,0.4-0.3,0.6c0,0.2,0,0.3,0.1,0.4s0.2,0.2,0.3,0.3c0.1,0.1,0.3,0.1,0.5,0.2c0.2,0.1,0.4,0.1,0.7,0.2
			c0.3,0.1,0.6,0.2,0.9,0.3c0.3,0.1,0.5,0.2,0.7,0.3c0.2,0.1,0.3,0.3,0.4,0.5c0.1,0.2,0.2,0.4,0.2,0.7c0,0.3-0.1,0.6-0.2,0.8
			s-0.3,0.4-0.5,0.6s-0.5,0.3-0.8,0.3s-0.6,0.1-0.9,0.1c-0.5,0-1-0.1-1.5-0.2s-0.9-0.4-1.3-0.6l0.5-0.9c0.1,0.1,0.2,0.2,0.4,0.3
			c0.2,0.1,0.3,0.2,0.5,0.3c0.2,0.1,0.4,0.1,0.7,0.2c0.2,0.1,0.5,0.1,0.7,0.1c0.4,0,0.7-0.1,1-0.2s0.3-0.3,0.3-0.6
			c0-0.2,0-0.3-0.1-0.4s-0.2-0.2-0.4-0.3c-0.2-0.1-0.3-0.2-0.6-0.2c-0.2-0.1-0.5-0.1-0.8-0.2c-0.3-0.1-0.6-0.2-0.9-0.3
			c-0.2-0.1-0.4-0.2-0.6-0.3c-0.2-0.1-0.3-0.3-0.4-0.5c-0.1-0.2-0.1-0.4-0.1-0.6c0-0.3,0.1-0.6,0.2-0.8s0.3-0.4,0.5-0.6
			c0.2-0.2,0.5-0.3,0.8-0.4c0.3-0.1,0.6-0.1,1-0.1c0.4,0,0.9,0.1,1.2,0.2s0.7,0.3,1,0.5L41,87.4z"/>
	</g>
	<g>
		<path class="st1" d="M31.3,115c-0.4-0.4-1-0.4-1.4,0l-4.2,4.3l1.4,1.4l4.2-4.3C31.7,116,31.7,115.4,31.3,115z"/>
		<path class="st1" d="M15.1,131.3c0.4,0.4,1,0.4,1.4,0l9.9-9.9l-1.4-1.4l-9.9,9.9C14.7,130.3,14.7,130.9,15.1,131.3z"/>
		<polygon class="st1" points="31.2,110.1 30.7,108.1 30.2,110.1 28.2,110.6 30.2,111.1 30.7,113.1 31.2,111.1 33.2,110.6 			"/>
		<polygon class="st1" points="35.3,113.5 34.8,115.5 32.8,116 34.8,116.5 35.3,118.5 35.8,116.5 37.8,116 35.8,115.5 			"/>
		<polygon class="st1" points="32.4,120.7 32,122.6 30.1,123 32,123.5 32.4,125.4 32.9,123.5 34.7,123 32.9,122.6 			"/>
		<polygon class="st1" points="24,113.9 27.4,113.1 24,112.2 23.1,108.8 22.3,112.2 18.9,113.1 22.3,113.9 23.1,117.3 			"/>
	</g>
	<g>
		<path class="st1" d="M13,137.5c-0.1-0.1-0.2-0.1-0.3-0.2c-0.1-0.1-0.3-0.1-0.4-0.2c-0.2-0.1-0.3-0.1-0.5-0.2
			c-0.2,0-0.4-0.1-0.6-0.1c-0.4,0-0.8,0.1-1,0.2s-0.3,0.4-0.3,0.6c0,0.2,0,0.3,0.1,0.4c0.1,0.1,0.2,0.2,0.3,0.3
			c0.1,0.1,0.3,0.1,0.5,0.2s0.4,0.1,0.7,0.2c0.3,0.1,0.6,0.2,0.9,0.3c0.3,0.1,0.5,0.2,0.7,0.3c0.2,0.1,0.3,0.3,0.4,0.5
			c0.1,0.2,0.2,0.4,0.2,0.7c0,0.3-0.1,0.6-0.2,0.8c-0.1,0.2-0.3,0.4-0.5,0.6s-0.5,0.3-0.8,0.3s-0.6,0.1-0.9,0.1
			c-0.5,0-1-0.1-1.5-0.2s-0.9-0.4-1.3-0.6l0.5-0.9c0.1,0.1,0.2,0.2,0.4,0.3c0.2,0.1,0.3,0.2,0.5,0.3s0.4,0.1,0.7,0.2
			c0.2,0.1,0.5,0.1,0.7,0.1c0.4,0,0.7-0.1,1-0.2s0.3-0.3,0.3-0.6c0-0.2,0-0.3-0.1-0.4c-0.1-0.1-0.2-0.2-0.4-0.3
			c-0.2-0.1-0.3-0.2-0.6-0.2s-0.5-0.1-0.8-0.2c-0.3-0.1-0.6-0.2-0.9-0.3s-0.4-0.2-0.6-0.3c-0.2-0.1-0.3-0.3-0.4-0.5
			c-0.1-0.2-0.1-0.4-0.1-0.6c0-0.3,0.1-0.6,0.2-0.8c0.1-0.2,0.3-0.4,0.5-0.6c0.2-0.2,0.5-0.3,0.8-0.4c0.3-0.1,0.6-0.1,1-0.1
			c0.4,0,0.9,0.1,1.2,0.2s0.7,0.3,1,0.5L13,137.5z"/>
		<path class="st1" d="M14.8,142.4v-6.3h2.8c0.3,0,0.6,0.1,0.8,0.2c0.3,0.1,0.5,0.3,0.6,0.5s0.3,0.4,0.4,0.7
			c0.1,0.2,0.2,0.5,0.2,0.8c0,0.3,0,0.5-0.1,0.8c-0.1,0.2-0.2,0.5-0.4,0.7c-0.2,0.2-0.4,0.3-0.6,0.5c-0.2,0.1-0.5,0.2-0.8,0.2h-1.8
			v2.2H14.8z M15.8,139.3h1.7c0.1,0,0.3,0,0.4-0.1c0.1-0.1,0.2-0.1,0.3-0.2c0.1-0.1,0.2-0.2,0.2-0.4s0.1-0.3,0.1-0.5
			c0-0.2,0-0.3-0.1-0.5s-0.1-0.3-0.2-0.4c-0.1-0.1-0.2-0.2-0.3-0.2c-0.1-0.1-0.3-0.1-0.4-0.1h-1.7V139.3z"/>
		<path class="st1" d="M25.2,141.5v0.9h-4.5v-6.3h4.5v0.9h-3.4v1.8h3v0.8h-3v1.9H25.2z"/>
		<path class="st1" d="M26.2,142.4v-6.3h1v5.4h3.6v0.9H26.2z"/>
		<path class="st1" d="M31.7,142.4v-6.3h1v5.4h3.6v0.9H31.7z"/>
		<path class="st1" d="M41.1,137.5c-0.1-0.1-0.2-0.1-0.3-0.2c-0.1-0.1-0.3-0.1-0.4-0.2c-0.2-0.1-0.3-0.1-0.5-0.2
			c-0.2,0-0.4-0.1-0.6-0.1c-0.4,0-0.8,0.1-1,0.2s-0.3,0.4-0.3,0.6c0,0.2,0,0.3,0.1,0.4c0.1,0.1,0.2,0.2,0.3,0.3
			c0.1,0.1,0.3,0.1,0.5,0.2s0.4,0.1,0.7,0.2c0.3,0.1,0.6,0.2,0.9,0.3c0.3,0.1,0.5,0.2,0.7,0.3c0.2,0.1,0.3,0.3,0.4,0.5
			c0.1,0.2,0.2,0.4,0.2,0.7c0,0.3-0.1,0.6-0.2,0.8c-0.1,0.2-0.3,0.4-0.5,0.6s-0.5,0.3-0.8,0.3s-0.6,0.1-0.9,0.1
			c-0.5,0-1-0.1-1.5-0.2s-0.9-0.4-1.3-0.6l0.5-0.9c0.1,0.1,0.2,0.2,0.4,0.3c0.2,0.1,0.3,0.2,0.5,0.3s0.4,0.1,0.7,0.2
			c0.2,0.1,0.5,0.1,0.7,0.1c0.4,0,0.7-0.1,1-0.2s0.3-0.3,0.3-0.6c0-0.2,0-0.3-0.1-0.4c-0.1-0.1-0.2-0.2-0.4-0.3
			c-0.2-0.1-0.3-0.2-0.6-0.2s-0.5-0.1-0.8-0.2c-0.3-0.1-0.6-0.2-0.9-0.3s-0.4-0.2-0.6-0.3c-0.2-0.1-0.3-0.3-0.4-0.5
			c-0.1-0.2-0.1-0.4-0.1-0.6c0-0.3,0.1-0.6,0.2-0.8c0.1-0.2,0.3-0.4,0.5-0.6c0.2-0.2,0.5-0.3,0.8-0.4c0.3-0.1,0.6-0.1,1-0.1
			c0.4,0,0.9,0.1,1.2,0.2s0.7,0.3,1,0.5L41.1,137.5z"/>
	</g>
	<g>
		<path class="st1" d="M31.3,165.1c-0.4-0.4-1-0.4-1.4,0l-4.2,4.3l1.4,1.4l4.2-4.3C31.7,166.1,31.7,165.5,31.3,165.1z"/>
		<path class="st1" d="M15,181.4c0.4,0.4,1,0.4,1.4,0l9.9-9.9l-1.4-1.4L15,180C14.6,180.4,14.6,181,15,181.4z"/>
		<polygon class="st1" points="31.1,160.2 30.6,158.2 30.1,160.2 28.1,160.7 30.1,161.2 30.6,163.2 31.1,161.2 33.1,160.7 			"/>
		<polygon class="st1" points="35.2,163.6 34.7,165.6 32.7,166.1 34.7,166.6 35.2,168.6 35.7,166.6 37.7,166.1 35.7,165.6 			"/>
		<polygon class="st1" points="32.4,170.8 31.9,172.7 30,173.1 31.9,173.6 32.4,175.5 32.8,173.6 34.7,173.1 32.8,172.7 			"/>
		<polygon class="st1" points="23.9,164 27.3,163.2 23.9,162.3 23.1,158.9 22.2,162.3 18.8,163.2 22.2,164 23.1,167.4 			"/>
	</g>
	<g>
		<path class="st1" d="M13,187.6c-0.1-0.1-0.2-0.1-0.3-0.2c-0.1-0.1-0.3-0.1-0.4-0.2c-0.2-0.1-0.3-0.1-0.5-0.2
			c-0.2,0-0.4-0.1-0.6-0.1c-0.4,0-0.8,0.1-1,0.2s-0.3,0.4-0.3,0.6c0,0.2,0,0.3,0.1,0.4c0.1,0.1,0.2,0.2,0.3,0.3
			c0.1,0.1,0.3,0.1,0.5,0.2s0.4,0.1,0.7,0.2c0.3,0.1,0.6,0.2,0.9,0.3c0.3,0.1,0.5,0.2,0.7,0.3c0.2,0.1,0.3,0.3,0.4,0.5
			c0.1,0.2,0.2,0.4,0.2,0.7c0,0.3-0.1,0.6-0.2,0.8c-0.1,0.2-0.3,0.4-0.5,0.6s-0.5,0.3-0.8,0.3s-0.6,0.1-0.9,0.1
			c-0.5,0-1-0.1-1.5-0.2s-0.9-0.4-1.3-0.6l0.5-0.9c0.1,0.1,0.2,0.2,0.4,0.3c0.2,0.1,0.3,0.2,0.5,0.3s0.4,0.1,0.7,0.2
			c0.2,0.1,0.5,0.1,0.7,0.1c0.4,0,0.7-0.1,1-0.2s0.3-0.3,0.3-0.6c0-0.2,0-0.3-0.1-0.4c-0.1-0.1-0.2-0.2-0.4-0.3
			c-0.2-0.1-0.3-0.2-0.6-0.2s-0.5-0.1-0.8-0.2c-0.3-0.1-0.6-0.2-0.9-0.3s-0.4-0.2-0.6-0.3c-0.2-0.1-0.3-0.3-0.4-0.5
			c-0.1-0.2-0.1-0.4-0.1-0.6c0-0.3,0.1-0.6,0.2-0.8c0.1-0.2,0.3-0.4,0.5-0.6c0.2-0.2,0.5-0.3,0.8-0.4c0.3-0.1,0.6-0.1,1-0.1
			c0.4,0,0.9,0.1,1.2,0.2s0.7,0.3,1,0.5L13,187.6z"/>
		<path class="st1" d="M14.7,192.5v-6.3h2.8c0.3,0,0.6,0.1,0.8,0.2c0.3,0.1,0.5,0.3,0.6,0.5s0.3,0.4,0.4,0.7
			c0.1,0.2,0.2,0.5,0.2,0.8c0,0.3,0,0.5-0.1,0.8c-0.1,0.2-0.2,0.5-0.4,0.7c-0.2,0.2-0.4,0.3-0.6,0.5c-0.2,0.1-0.5,0.2-0.8,0.2h-1.8
			v2.2H14.7z M15.8,189.4h1.7c0.1,0,0.3,0,0.4-0.1c0.1-0.1,0.2-0.1,0.3-0.2c0.1-0.1,0.2-0.2,0.2-0.4s0.1-0.3,0.1-0.5
			c0-0.2,0-0.3-0.1-0.5s-0.1-0.3-0.2-0.4c-0.1-0.1-0.2-0.2-0.3-0.2c-0.1-0.1-0.3-0.1-0.4-0.1h-1.7V189.4z"/>
		<path class="st1" d="M25.1,191.6v0.9h-4.5v-6.3H25v0.9h-3.4v1.8h3v0.8h-3v1.9H25.1z"/>
		<path class="st1" d="M26.2,192.5v-6.3h1v5.4h3.6v0.9H26.2z"/>
		<path class="st1" d="M31.6,192.5v-6.3h1v5.4h3.6v0.9H31.6z"/>
		<path class="st1" d="M41,187.6c-0.1-0.1-0.2-0.1-0.3-0.2c-0.1-0.1-0.3-0.1-0.4-0.2c-0.2-0.1-0.3-0.1-0.5-0.2
			c-0.2,0-0.4-0.1-0.6-0.1c-0.4,0-0.8,0.1-1,0.2s-0.3,0.4-0.3,0.6c0,0.2,0,0.3,0.1,0.4c0.1,0.1,0.2,0.2,0.3,0.3
			c0.1,0.1,0.3,0.1,0.5,0.2s0.4,0.1,0.7,0.2c0.3,0.1,0.6,0.2,0.9,0.3c0.3,0.1,0.5,0.2,0.7,0.3c0.2,0.1,0.3,0.3,0.4,0.5
			c0.1,0.2,0.2,0.4,0.2,0.7c0,0.3-0.1,0.6-0.2,0.8c-0.1,0.2-0.3,0.4-0.5,0.6s-0.5,0.3-0.8,0.3s-0.6,0.1-0.9,0.1
			c-0.5,0-1-0.1-1.5-0.2s-0.9-0.4-1.3-0.6l0.5-0.9c0.1,0.1,0.2,0.2,0.4,0.3c0.2,0.1,0.3,0.2,0.5,0.3s0.4,0.1,0.7,0.2
			c0.2,0.1,0.5,0.1,0.7,0.1c0.4,0,0.7-0.1,1-0.2s0.3-0.3,0.3-0.6c0-0.2,0-0.3-0.1-0.4c-0.1-0.1-0.2-0.2-0.4-0.3
			c-0.2-0.1-0.3-0.2-0.6-0.2s-0.5-0.1-0.8-0.2c-0.3-0.1-0.6-0.2-0.9-0.3s-0.4-0.2-0.6-0.3c-0.2-0.1-0.3-0.3-0.4-0.5
			c-0.1-0.2-0.1-0.4-0.1-0.6c0-0.3,0.1-0.6,0.2-0.8c0.1-0.2,0.3-0.4,0.5-0.6c0.2-0.2,0.5-0.3,0.8-0.4c0.3-0.1,0.6-0.1,1-0.1
			c0.4,0,0.9,0.1,1.2,0.2s0.7,0.3,1,0.5L41,187.6z"/>
	</g>
</g>
</svg>
