<?xml version="1.0" encoding="utf-8"?>
<!-- Generator: Adobe Illustrator 19.2.0, SVG Export Plug-In . SVG Version: 6.00 Build 0)  -->
<svg version="1.1" id="Layer_1" xmlns="http://www.w3.org/2000/svg" xmlns:xlink="http://www.w3.org/1999/xlink" x="0px" y="0px"
	 viewBox="0 0 50 200.1" style="enable-background:new 0 0 50 200.1;" xml:space="preserve">
<style type="text/css">
	.st0{fill:#414042;}
	.st1{fill:#FFFFFF;}
	.st2{fill:#1E1E1E;}
	.st3{fill:#333333;}
</style>
<g id="Layer_2">
	<g>
		<g>
			<path class="st0" d="M50.1,146.1c0,2.2-1.8,4-4,4h-42c-2.2,0-4-1.8-4-4v-42c0-2.2,1.8-4,4-4h42c2.2,0,4,1.8,4,4V146.1z"/>
		</g>
	</g>
	<g>
		<g>
			<path class="st0" d="M50,196.1c0,2.2-1.8,4-4,4H4c-2.2,0-4-1.8-4-4v-42c0-2.2,1.8-4,4-4h42c2.2,0,4,1.8,4,4V196.1z"/>
		</g>
	</g>
	<g>
		<g>
			<path class="st1" d="M50,46c0,2.2-1.8,4-4,4H4c-2.2,0-4-1.8-4-4V4c0-2.2,1.8-4,4-4h42c2.2,0,4,1.8,4,4V46z"/>
		</g>
	</g>
	<g>
		<path class="st2" d="M50,96.1c0,2.2-1.8,4-4,4H4c-2.2,0-4-1.8-4-4v-42c0-2.2,1.8-4,4-4h42c2.2,0,4,1.8,4,4V96.1z"/>
	</g>
</g>
<g id="Layer_3">
</g>
<g>
	<path class="st3" d="M6.3,41.8c-0.5,0.5-1.1,0.8-1.7,0.8c-0.4,0-0.8-0.1-1.2-0.3c-0.4-0.2-0.7-0.4-0.9-0.7c-0.3-0.3-0.5-0.7-0.6-1
		s-0.2-0.8-0.2-1.2c0-0.4,0.1-0.9,0.2-1.2c0.2-0.4,0.4-0.7,0.6-1c0.3-0.3,0.6-0.5,1-0.7c0.4-0.2,0.8-0.3,1.2-0.3
		c0.6,0,1.1,0.1,1.5,0.4s0.7,0.6,0.9,1l-0.9,0.7c-0.2-0.3-0.4-0.6-0.6-0.7S5,37.2,4.7,37.2c-0.3,0-0.5,0.1-0.7,0.2
		c-0.2,0.1-0.4,0.3-0.5,0.5c-0.2,0.2-0.3,0.4-0.4,0.7c-0.1,0.3-0.1,0.5-0.1,0.8c0,0.3,0,0.6,0.1,0.8c0.1,0.3,0.2,0.5,0.4,0.7
		c0.2,0.2,0.4,0.3,0.6,0.5c0.2,0.1,0.5,0.2,0.7,0.2c0.6,0,1.1-0.3,1.6-0.9v-0.5H5v-0.9h2.3v3.3h-1V41.8z"/>
	<path class="st3" d="M12.9,41.5v1.1H8.5v-6.4h4.4v1.1H9.7v1.5h2.7v1H9.7v1.7H12.9z"/>
	<path class="st3" d="M17.8,37.8c0,0-0.1-0.1-0.2-0.2c-0.1-0.1-0.2-0.1-0.4-0.2c-0.2-0.1-0.3-0.1-0.5-0.2c-0.2,0-0.4-0.1-0.6-0.1
		c-0.3,0-0.6,0.1-0.8,0.2c-0.2,0.1-0.3,0.3-0.3,0.5c0,0.1,0,0.2,0.1,0.3c0.1,0.1,0.2,0.2,0.3,0.2s0.3,0.1,0.5,0.2
		c0.2,0.1,0.4,0.1,0.6,0.2c0.3,0.1,0.6,0.2,0.9,0.3c0.3,0.1,0.5,0.2,0.6,0.4c0.2,0.1,0.3,0.3,0.4,0.5c0.1,0.2,0.1,0.4,0.1,0.7
		c0,0.3-0.1,0.6-0.2,0.9c-0.1,0.2-0.3,0.4-0.5,0.6s-0.5,0.3-0.8,0.3c-0.3,0.1-0.6,0.1-0.9,0.1c-0.5,0-1-0.1-1.4-0.2
		s-0.9-0.3-1.3-0.6l0.5-1.1c0.1,0.1,0.2,0.1,0.3,0.2c0.1,0.1,0.3,0.2,0.5,0.3s0.4,0.2,0.6,0.2c0.2,0.1,0.5,0.1,0.7,0.1
		c0.7,0,1-0.2,1-0.7c0-0.1,0-0.3-0.1-0.4c-0.1-0.1-0.2-0.2-0.3-0.3c-0.1-0.1-0.3-0.1-0.5-0.2c-0.2-0.1-0.4-0.1-0.7-0.2
		c-0.3-0.1-0.6-0.2-0.8-0.3s-0.4-0.2-0.6-0.3c-0.2-0.1-0.3-0.3-0.3-0.5c-0.1-0.2-0.1-0.4-0.1-0.6c0-0.3,0.1-0.6,0.2-0.9
		c0.1-0.3,0.3-0.5,0.5-0.6s0.5-0.3,0.7-0.4c0.3-0.1,0.6-0.1,0.9-0.1c0.5,0,0.9,0.1,1.2,0.2c0.4,0.1,0.7,0.3,1,0.5L17.8,37.8z"/>
	<path class="st3" d="M24.3,37.2h-2v5.3H21v-5.3h-2v-1.1h5.3V37.2z"/>
	<path class="st3" d="M27.9,41.5c0.3,0,0.5-0.1,0.7-0.2s0.4-0.3,0.5-0.5c0.1-0.2,0.2-0.4,0.3-0.7s0.1-0.5,0.1-0.8v-3.3h1.2v3.3
		c0,0.4-0.1,0.8-0.2,1.2c-0.1,0.4-0.3,0.7-0.5,1c-0.2,0.3-0.5,0.5-0.9,0.7c-0.4,0.2-0.8,0.3-1.3,0.3c-0.5,0-0.9-0.1-1.3-0.3
		c-0.4-0.2-0.6-0.4-0.9-0.7c-0.2-0.3-0.4-0.6-0.5-1c-0.1-0.4-0.1-0.8-0.1-1.2v-3.3h1.2v3.3c0,0.3,0,0.5,0.1,0.8
		c0.1,0.2,0.1,0.5,0.3,0.7s0.3,0.3,0.5,0.5S27.6,41.5,27.9,41.5z"/>
	<path class="st3" d="M32,42.6v-6.4h2.8c0.3,0,0.6,0.1,0.8,0.2s0.5,0.3,0.6,0.5c0.2,0.2,0.3,0.4,0.4,0.7c0.1,0.3,0.2,0.5,0.2,0.8
		c0,0.4-0.1,0.8-0.3,1.1c-0.2,0.3-0.5,0.6-0.8,0.7l1.5,2.4h-1.4l-1.3-2.1h-1.2v2.1H32z M33.3,39.3h1.6c0.1,0,0.2,0,0.3-0.1
		c0.1-0.1,0.2-0.1,0.3-0.2c0.1-0.1,0.1-0.2,0.2-0.3s0.1-0.3,0.1-0.4c0-0.1,0-0.3-0.1-0.4s-0.1-0.2-0.2-0.3c-0.1-0.1-0.2-0.2-0.3-0.2
		c-0.1-0.1-0.2-0.1-0.3-0.1h-1.5V39.3z"/>
	<path class="st3" d="M42.6,41.5v1.1h-4.4v-6.4h4.4v1.1h-3.1v1.5h2.7v1h-2.7v1.7H42.6z"/>
	<path class="st3" d="M47.4,37.8c0,0-0.1-0.1-0.2-0.2c-0.1-0.1-0.2-0.1-0.4-0.2c-0.2-0.1-0.3-0.1-0.5-0.2c-0.2,0-0.4-0.1-0.6-0.1
		c-0.3,0-0.6,0.1-0.8,0.2c-0.2,0.1-0.3,0.3-0.3,0.5c0,0.1,0,0.2,0.1,0.3c0.1,0.1,0.2,0.2,0.3,0.2s0.3,0.1,0.5,0.2
		c0.2,0.1,0.4,0.1,0.6,0.2c0.3,0.1,0.6,0.2,0.9,0.3c0.3,0.1,0.5,0.2,0.6,0.4c0.2,0.1,0.3,0.3,0.4,0.5c0.1,0.2,0.1,0.4,0.1,0.7
		c0,0.3-0.1,0.6-0.2,0.9c-0.1,0.2-0.3,0.4-0.5,0.6s-0.5,0.3-0.8,0.3c-0.3,0.1-0.6,0.1-0.9,0.1c-0.5,0-1-0.1-1.4-0.2
		s-0.9-0.3-1.3-0.6l0.5-1.1c0.1,0.1,0.2,0.1,0.3,0.2c0.1,0.1,0.3,0.2,0.5,0.3s0.4,0.2,0.6,0.2c0.2,0.1,0.5,0.1,0.7,0.1
		c0.7,0,1-0.2,1-0.7c0-0.1,0-0.3-0.1-0.4c-0.1-0.1-0.2-0.2-0.3-0.3c-0.1-0.1-0.3-0.1-0.5-0.2c-0.2-0.1-0.4-0.1-0.7-0.2
		c-0.3-0.1-0.6-0.2-0.8-0.3s-0.4-0.2-0.6-0.3c-0.2-0.1-0.3-0.3-0.3-0.5c-0.1-0.2-0.1-0.4-0.1-0.6c0-0.3,0.1-0.6,0.2-0.9
		c0.1-0.3,0.3-0.5,0.5-0.6s0.5-0.3,0.7-0.4c0.3-0.1,0.6-0.1,0.9-0.1c0.5,0,0.9,0.1,1.2,0.2c0.4,0.1,0.7,0.3,1,0.5L47.4,37.8z"/>
</g>
<g>
	<path class="st3" d="M29.5,17c-0.2,0-0.4-0.1-0.6-0.2c-0.3-0.3-0.3-0.8,0-1.1l2.8-2.8L28.9,10c-0.3-0.3-0.3-0.8,0-1.1
		c0.3-0.3,0.8-0.3,1.1,0l4,4l-3.9,3.9C29.9,17,29.7,17,29.5,17z"/>
	<path class="st3" d="M15.1,12.8L19,8.9c0.3-0.3,0.8-0.3,1.1,0c0.3,0.3,0.3,0.8,0,1.1l-2.8,2.8l2.9,2.9c0.3,0.3,0.3,0.8,0,1.1
		c-0.3,0.3-0.8,0.3-1.1,0L15.1,12.8z"/>
	<path class="st3" d="M33.7,25.3c0-1,0-1.3,0-1.7c0-0.3,0-0.6,0-1.3c0-0.2,0-0.4,0-0.6c-0.1-0.9-0.6-1.6-1.4-1.9
		c-0.3-0.1-0.6-0.2-0.9-0.3c-0.7-0.2-2-0.6-3-0.9l-1.1-0.3l-0.1-1.6c0-0.6-0.1-1.2-0.1-1.4c0-1-0.6-1.9-1.6-2.3
		c-0.1,0-0.1-0.1-0.2-0.1c-0.9-0.4-1.9-0.2-2.7,0.4c-1.1,0.8-1.1,2.1-1.1,2.5c0,1.7,0,3.4,0,5.1l0,0.7l-0.3-0.1
		c-0.1,0-0.1,0-0.2-0.1c-1.3-0.3-2.7,0.3-3.2,1.6c-0.3,0.6-0.3,1.3-0.2,1.9c0.2,0.6,0.5,1.1,1,1.5l0,0c0.6,0.5,1.2,0.9,1.8,1.4
		c1.2,0.9,2.4,1.8,3.5,2.8c0.4,0.3,0.8,0.6,1.2,0.8c2,1,3.7,0.3,4.9-0.2C32.4,29.8,33.7,27.8,33.7,25.3z M29.6,29.5
		c-1.4,0.7-2.5,0.7-3.6,0.2c-0.3-0.2-0.6-0.3-0.9-0.6c-1.2-0.9-2.4-1.8-3.5-2.7c-0.6-0.5-1.2-0.9-1.8-1.4l0,0
		c-0.5-0.4-0.7-1-0.4-1.6c0.3-0.6,0.9-0.9,1.4-0.7c0.1,0,0.2,0.1,0.3,0.1c0,0,0,0,0.1,0c0.1,0,0.2,0.1,0.3,0.2l1.8,1.4
		c0-2.9,0-5.8,0-8.7c0-0.5,0.1-0.9,0.5-1.2c0.4-0.3,0.8-0.4,1.2-0.2c0,0,0.1,0,0.1,0l0,0c0.4,0.2,0.7,0.6,0.7,1c0,0.3,0,1,0.1,1.7
		c0,0.9,0.1,1.9,0.1,2.5c0.5,0.1,1.3,0.4,2.1,0.6c1.2,0.4,2.4,0.7,3,0.9c0.2,0,0.5,0.1,0.6,0.2c0.2,0.1,0.5,0.3,0.6,0.8
		c0,0.1,0,0.3,0,0.4c0,0.7,0,1.1,0,1.4c0,0.4,0,0.7,0,1.7C32.2,27.2,31.3,28.7,29.6,29.5z"/>
</g>
<g>
	<path class="st1" d="M6.3,91.8c-0.5,0.5-1.1,0.8-1.7,0.8c-0.4,0-0.8-0.1-1.2-0.3c-0.4-0.2-0.7-0.4-0.9-0.7c-0.3-0.3-0.5-0.7-0.6-1
		s-0.2-0.8-0.2-1.2c0-0.4,0.1-0.9,0.2-1.2c0.2-0.4,0.4-0.7,0.6-1c0.3-0.3,0.6-0.5,1-0.7c0.4-0.2,0.8-0.3,1.2-0.3
		c0.6,0,1.1,0.1,1.5,0.4s0.7,0.6,0.9,1l-0.9,0.7c-0.2-0.3-0.4-0.6-0.6-0.7S5,87.2,4.7,87.2c-0.3,0-0.5,0.1-0.7,0.2
		c-0.2,0.1-0.4,0.3-0.5,0.5c-0.2,0.2-0.3,0.4-0.4,0.7c-0.1,0.3-0.1,0.5-0.1,0.8c0,0.3,0,0.6,0.1,0.8c0.1,0.3,0.2,0.5,0.4,0.7
		c0.2,0.2,0.4,0.3,0.6,0.5c0.2,0.1,0.5,0.2,0.7,0.2c0.6,0,1.1-0.3,1.6-0.9v-0.5H5v-0.9h2.3v3.3h-1V91.8z"/>
	<path class="st1" d="M12.9,91.5v1.1H8.5v-6.4h4.4v1.1H9.7v1.5h2.7v1H9.7v1.7H12.9z"/>
	<path class="st1" d="M17.8,87.8c0,0-0.1-0.1-0.2-0.2c-0.1-0.1-0.2-0.1-0.4-0.2c-0.2-0.1-0.3-0.1-0.5-0.2c-0.2,0-0.4-0.1-0.6-0.1
		c-0.3,0-0.6,0.1-0.8,0.2c-0.2,0.1-0.3,0.3-0.3,0.5c0,0.1,0,0.2,0.1,0.3c0.1,0.1,0.2,0.2,0.3,0.2s0.3,0.1,0.5,0.2
		c0.2,0.1,0.4,0.1,0.6,0.2c0.3,0.1,0.6,0.2,0.9,0.3c0.3,0.1,0.5,0.2,0.6,0.4c0.2,0.1,0.3,0.3,0.4,0.5c0.1,0.2,0.1,0.4,0.1,0.7
		c0,0.3-0.1,0.6-0.2,0.9c-0.1,0.2-0.3,0.4-0.5,0.6s-0.5,0.3-0.8,0.3c-0.3,0.1-0.6,0.1-0.9,0.1c-0.5,0-1-0.1-1.4-0.2
		s-0.9-0.3-1.3-0.6l0.5-1.1c0.1,0.1,0.2,0.1,0.3,0.2c0.1,0.1,0.3,0.2,0.5,0.3s0.4,0.2,0.6,0.2c0.2,0.1,0.5,0.1,0.7,0.1
		c0.7,0,1-0.2,1-0.7c0-0.1,0-0.3-0.1-0.4c-0.1-0.1-0.2-0.2-0.3-0.3c-0.1-0.1-0.3-0.1-0.5-0.2c-0.2-0.1-0.4-0.1-0.7-0.2
		c-0.3-0.1-0.6-0.2-0.8-0.3s-0.4-0.2-0.6-0.3c-0.2-0.1-0.3-0.3-0.3-0.5c-0.1-0.2-0.1-0.4-0.1-0.6c0-0.3,0.1-0.6,0.2-0.9
		c0.1-0.3,0.3-0.5,0.5-0.6s0.5-0.3,0.7-0.4c0.3-0.1,0.6-0.1,0.9-0.1c0.5,0,0.9,0.1,1.2,0.2c0.4,0.1,0.7,0.3,1,0.5L17.8,87.8z"/>
	<path class="st1" d="M24.3,87.2h-2v5.3H21v-5.3h-2v-1.1h5.3V87.2z"/>
	<path class="st1" d="M27.9,91.5c0.3,0,0.5-0.1,0.7-0.2s0.4-0.3,0.5-0.5c0.1-0.2,0.2-0.4,0.3-0.7s0.1-0.5,0.1-0.8v-3.3h1.2v3.3
		c0,0.4-0.1,0.8-0.2,1.2c-0.1,0.4-0.3,0.7-0.5,1c-0.2,0.3-0.5,0.5-0.9,0.7c-0.4,0.2-0.8,0.3-1.3,0.3c-0.5,0-0.9-0.1-1.3-0.3
		c-0.4-0.2-0.6-0.4-0.9-0.7c-0.2-0.3-0.4-0.6-0.5-1c-0.1-0.4-0.1-0.8-0.1-1.2v-3.3h1.2v3.3c0,0.3,0,0.5,0.1,0.8
		c0.1,0.2,0.1,0.5,0.3,0.7s0.3,0.3,0.5,0.5S27.6,91.5,27.9,91.5z"/>
	<path class="st1" d="M32,92.6v-6.4h2.8c0.3,0,0.6,0.1,0.8,0.2s0.5,0.3,0.6,0.5c0.2,0.2,0.3,0.4,0.4,0.7c0.1,0.3,0.2,0.5,0.2,0.8
		c0,0.4-0.1,0.8-0.3,1.1c-0.2,0.3-0.5,0.6-0.8,0.7l1.5,2.4h-1.4l-1.3-2.1h-1.2v2.1H32z M33.3,89.3h1.6c0.1,0,0.2,0,0.3-0.1
		c0.1-0.1,0.2-0.1,0.3-0.2c0.1-0.1,0.1-0.2,0.2-0.3s0.1-0.3,0.1-0.4c0-0.1,0-0.3-0.1-0.4s-0.1-0.2-0.2-0.3c-0.1-0.1-0.2-0.2-0.3-0.2
		c-0.1-0.1-0.2-0.1-0.3-0.1h-1.5V89.3z"/>
	<path class="st1" d="M42.6,91.5v1.1h-4.4v-6.4h4.4v1.1h-3.1v1.5h2.7v1h-2.7v1.7H42.6z"/>
	<path class="st1" d="M47.4,87.8c0,0-0.1-0.1-0.2-0.2c-0.1-0.1-0.2-0.1-0.4-0.2c-0.2-0.1-0.3-0.1-0.5-0.2c-0.2,0-0.4-0.1-0.6-0.1
		c-0.3,0-0.6,0.1-0.8,0.2c-0.2,0.1-0.3,0.3-0.3,0.5c0,0.1,0,0.2,0.1,0.3c0.1,0.1,0.2,0.2,0.3,0.2s0.3,0.1,0.5,0.2
		c0.2,0.1,0.4,0.1,0.6,0.2c0.3,0.1,0.6,0.2,0.9,0.3c0.3,0.1,0.5,0.2,0.6,0.4c0.2,0.1,0.3,0.3,0.4,0.5c0.1,0.2,0.1,0.4,0.1,0.7
		c0,0.3-0.1,0.6-0.2,0.9c-0.1,0.2-0.3,0.4-0.5,0.6s-0.5,0.3-0.8,0.3c-0.3,0.1-0.6,0.1-0.9,0.1c-0.5,0-1-0.1-1.4-0.2
		s-0.9-0.3-1.3-0.6l0.5-1.1c0.1,0.1,0.2,0.1,0.3,0.2c0.1,0.1,0.3,0.2,0.5,0.3s0.4,0.2,0.6,0.2c0.2,0.1,0.5,0.1,0.7,0.1
		c0.7,0,1-0.2,1-0.7c0-0.1,0-0.3-0.1-0.4c-0.1-0.1-0.2-0.2-0.3-0.3c-0.1-0.1-0.3-0.1-0.5-0.2c-0.2-0.1-0.4-0.1-0.7-0.2
		c-0.3-0.1-0.6-0.2-0.8-0.3s-0.4-0.2-0.6-0.3c-0.2-0.1-0.3-0.3-0.3-0.5c-0.1-0.2-0.1-0.4-0.1-0.6c0-0.3,0.1-0.6,0.2-0.9
		c0.1-0.3,0.3-0.5,0.5-0.6s0.5-0.3,0.7-0.4c0.3-0.1,0.6-0.1,0.9-0.1c0.5,0,0.9,0.1,1.2,0.2c0.4,0.1,0.7,0.3,1,0.5L47.4,87.8z"/>
</g>
<g>
	<path class="st1" d="M29.5,67c-0.2,0-0.4-0.1-0.6-0.2c-0.3-0.3-0.3-0.8,0-1.1l2.8-2.8L28.9,60c-0.3-0.3-0.3-0.8,0-1.1
		c0.3-0.3,0.8-0.3,1.1,0l4,4l-3.9,3.9C29.9,67,29.7,67,29.5,67z"/>
	<path class="st1" d="M15.1,62.8l3.9-3.9c0.3-0.3,0.8-0.3,1.1,0c0.3,0.3,0.3,0.8,0,1.1l-2.8,2.8l2.9,2.9c0.3,0.3,0.3,0.8,0,1.1
		c-0.3,0.3-0.8,0.3-1.1,0L15.1,62.8z"/>
	<path class="st1" d="M33.7,75.3c0-1,0-1.3,0-1.7c0-0.3,0-0.6,0-1.3c0-0.2,0-0.4,0-0.6c-0.1-0.9-0.6-1.6-1.4-1.9
		c-0.3-0.1-0.6-0.2-0.9-0.3c-0.7-0.2-2-0.6-3-0.9l-1.1-0.3l-0.1-1.6c0-0.6-0.1-1.2-0.1-1.4c0-1-0.6-1.9-1.6-2.3
		c-0.1,0-0.1-0.1-0.2-0.1c-0.9-0.4-1.9-0.2-2.7,0.4c-1.1,0.8-1.1,2.1-1.1,2.5c0,1.7,0,3.4,0,5.1l0,0.7l-0.3-0.1
		c-0.1,0-0.1,0-0.2-0.1c-1.3-0.3-2.7,0.3-3.2,1.6c-0.3,0.6-0.3,1.3-0.2,1.9c0.2,0.6,0.5,1.1,1,1.5l0,0c0.6,0.5,1.2,0.9,1.8,1.4
		c1.2,0.9,2.4,1.8,3.5,2.8c0.4,0.3,0.8,0.6,1.2,0.8c2,1,3.7,0.3,4.9-0.2C32.4,79.8,33.7,77.8,33.7,75.3z M29.6,79.5
		c-1.4,0.7-2.5,0.7-3.6,0.2c-0.3-0.2-0.6-0.3-0.9-0.6c-1.2-0.9-2.4-1.8-3.5-2.7c-0.6-0.5-1.2-0.9-1.8-1.4l0,0
		c-0.5-0.4-0.7-1-0.4-1.6c0.3-0.6,0.9-0.9,1.4-0.7c0.1,0,0.2,0.1,0.3,0.1c0,0,0,0,0.1,0c0.1,0,0.2,0.1,0.3,0.2l1.8,1.4
		c0-2.9,0-5.8,0-8.7c0-0.5,0.1-0.9,0.5-1.2c0.4-0.3,0.8-0.4,1.2-0.2c0,0,0.1,0,0.1,0l0,0c0.4,0.2,0.7,0.6,0.7,1c0,0.3,0,1,0.1,1.7
		c0,0.9,0.1,1.9,0.1,2.5c0.5,0.1,1.3,0.4,2.1,0.6c1.2,0.4,2.4,0.7,3,0.9c0.2,0,0.5,0.1,0.6,0.2c0.2,0.1,0.5,0.3,0.6,0.8
		c0,0.1,0,0.3,0,0.4c0,0.7,0,1.1,0,1.4c0,0.4,0,0.7,0,1.7C32.2,77.2,31.3,78.7,29.6,79.5z"/>
</g>
<g>
	<path class="st1" d="M6.3,141.8c-0.5,0.5-1.1,0.8-1.7,0.8c-0.4,0-0.8-0.1-1.2-0.3c-0.4-0.2-0.7-0.4-0.9-0.7c-0.3-0.3-0.5-0.7-0.6-1
		s-0.2-0.8-0.2-1.2c0-0.4,0.1-0.9,0.2-1.2c0.2-0.4,0.4-0.7,0.6-1c0.3-0.3,0.6-0.5,1-0.7c0.4-0.2,0.8-0.3,1.2-0.3
		c0.6,0,1.1,0.1,1.5,0.4s0.7,0.6,0.9,1l-0.9,0.7c-0.2-0.3-0.4-0.6-0.6-0.7s-0.6-0.3-0.9-0.3c-0.3,0-0.5,0.1-0.7,0.2
		c-0.2,0.1-0.4,0.3-0.5,0.5c-0.2,0.2-0.3,0.4-0.4,0.7c-0.1,0.3-0.1,0.5-0.1,0.8c0,0.3,0,0.6,0.1,0.8c0.1,0.3,0.2,0.5,0.4,0.7
		c0.2,0.2,0.4,0.3,0.6,0.5c0.2,0.1,0.5,0.2,0.7,0.2c0.6,0,1.1-0.3,1.6-0.9v-0.5H5v-0.9h2.3v3.3h-1V141.8z"/>
	<path class="st1" d="M12.9,141.5v1.1H8.5v-6.4h4.4v1.1H9.7v1.5h2.7v1H9.7v1.7H12.9z"/>
	<path class="st1" d="M17.8,137.8c0,0-0.1-0.1-0.2-0.2c-0.1-0.1-0.2-0.1-0.4-0.2c-0.2-0.1-0.3-0.1-0.5-0.2c-0.2,0-0.4-0.1-0.6-0.1
		c-0.3,0-0.6,0.1-0.8,0.2c-0.2,0.1-0.3,0.3-0.3,0.5c0,0.1,0,0.2,0.1,0.3c0.1,0.1,0.2,0.2,0.3,0.2s0.3,0.1,0.5,0.2
		c0.2,0.1,0.4,0.1,0.6,0.2c0.3,0.1,0.6,0.2,0.9,0.3c0.3,0.1,0.5,0.2,0.6,0.4c0.2,0.1,0.3,0.3,0.4,0.5c0.1,0.2,0.1,0.4,0.1,0.7
		c0,0.3-0.1,0.6-0.2,0.9c-0.1,0.2-0.3,0.4-0.5,0.6s-0.5,0.3-0.8,0.3c-0.3,0.1-0.6,0.1-0.9,0.1c-0.5,0-1-0.1-1.4-0.2
		s-0.9-0.3-1.3-0.6l0.5-1.1c0.1,0.1,0.2,0.1,0.3,0.2c0.1,0.1,0.3,0.2,0.5,0.3s0.4,0.2,0.6,0.2c0.2,0.1,0.5,0.1,0.7,0.1
		c0.7,0,1-0.2,1-0.7c0-0.1,0-0.3-0.1-0.4c-0.1-0.1-0.2-0.2-0.3-0.3c-0.1-0.1-0.3-0.1-0.5-0.2c-0.2-0.1-0.4-0.1-0.7-0.2
		c-0.3-0.1-0.6-0.2-0.8-0.3s-0.4-0.2-0.6-0.3c-0.2-0.1-0.3-0.3-0.3-0.5c-0.1-0.2-0.1-0.4-0.1-0.6c0-0.3,0.1-0.6,0.2-0.9
		c0.1-0.3,0.3-0.5,0.5-0.6s0.5-0.3,0.7-0.4c0.3-0.1,0.6-0.1,0.9-0.1c0.5,0,0.9,0.1,1.2,0.2c0.4,0.1,0.7,0.3,1,0.5L17.8,137.8z"/>
	<path class="st1" d="M24.3,137.2h-2v5.3H21v-5.3h-2v-1.1h5.3V137.2z"/>
	<path class="st1" d="M27.9,141.5c0.3,0,0.5-0.1,0.7-0.2s0.4-0.3,0.5-0.5c0.1-0.2,0.2-0.4,0.3-0.7s0.1-0.5,0.1-0.8v-3.3h1.2v3.3
		c0,0.4-0.1,0.8-0.2,1.2c-0.1,0.4-0.3,0.7-0.5,1c-0.2,0.3-0.5,0.5-0.9,0.7c-0.4,0.2-0.8,0.3-1.3,0.3c-0.5,0-0.9-0.1-1.3-0.3
		c-0.4-0.2-0.6-0.4-0.9-0.7c-0.2-0.3-0.4-0.6-0.5-1c-0.1-0.4-0.1-0.8-0.1-1.2v-3.3h1.2v3.3c0,0.3,0,0.5,0.1,0.8
		c0.1,0.2,0.1,0.5,0.3,0.7s0.3,0.3,0.5,0.5S27.6,141.5,27.9,141.5z"/>
	<path class="st1" d="M32,142.6v-6.4h2.8c0.3,0,0.6,0.1,0.8,0.2s0.5,0.3,0.6,0.5c0.2,0.2,0.3,0.4,0.4,0.7c0.1,0.3,0.2,0.5,0.2,0.8
		c0,0.4-0.1,0.8-0.3,1.1c-0.2,0.3-0.5,0.6-0.8,0.7l1.5,2.4h-1.4l-1.3-2.1h-1.2v2.1H32z M33.3,139.3h1.6c0.1,0,0.2,0,0.3-0.1
		c0.1-0.1,0.2-0.1,0.3-0.2c0.1-0.1,0.1-0.2,0.2-0.3s0.1-0.3,0.1-0.4c0-0.1,0-0.3-0.1-0.4s-0.1-0.2-0.2-0.3c-0.1-0.1-0.2-0.2-0.3-0.2
		c-0.1-0.1-0.2-0.1-0.3-0.1h-1.5V139.3z"/>
	<path class="st1" d="M42.6,141.5v1.1h-4.4v-6.4h4.4v1.1h-3.1v1.5h2.7v1h-2.7v1.7H42.6z"/>
	<path class="st1" d="M47.4,137.8c0,0-0.1-0.1-0.2-0.2c-0.1-0.1-0.2-0.1-0.4-0.2c-0.2-0.1-0.3-0.1-0.5-0.2c-0.2,0-0.4-0.1-0.6-0.1
		c-0.3,0-0.6,0.1-0.8,0.2c-0.2,0.1-0.3,0.3-0.3,0.5c0,0.1,0,0.2,0.1,0.3c0.1,0.1,0.2,0.2,0.3,0.2s0.3,0.1,0.5,0.2
		c0.2,0.1,0.4,0.1,0.6,0.2c0.3,0.1,0.6,0.2,0.9,0.3c0.3,0.1,0.5,0.2,0.6,0.4c0.2,0.1,0.3,0.3,0.4,0.5c0.1,0.2,0.1,0.4,0.1,0.7
		c0,0.3-0.1,0.6-0.2,0.9c-0.1,0.2-0.3,0.4-0.5,0.6s-0.5,0.3-0.8,0.3c-0.3,0.1-0.6,0.1-0.9,0.1c-0.5,0-1-0.1-1.4-0.2
		s-0.9-0.3-1.3-0.6l0.5-1.1c0.1,0.1,0.2,0.1,0.3,0.2c0.1,0.1,0.3,0.2,0.5,0.3s0.4,0.2,0.6,0.2c0.2,0.1,0.5,0.1,0.7,0.1
		c0.7,0,1-0.2,1-0.7c0-0.1,0-0.3-0.1-0.4c-0.1-0.1-0.2-0.2-0.3-0.3c-0.1-0.1-0.3-0.1-0.5-0.2c-0.2-0.1-0.4-0.1-0.7-0.2
		c-0.3-0.1-0.6-0.2-0.8-0.3s-0.4-0.2-0.6-0.3c-0.2-0.1-0.3-0.3-0.3-0.5c-0.1-0.2-0.1-0.4-0.1-0.6c0-0.3,0.1-0.6,0.2-0.9
		c0.1-0.3,0.3-0.5,0.5-0.6s0.5-0.3,0.7-0.4c0.3-0.1,0.6-0.1,0.9-0.1c0.5,0,0.9,0.1,1.2,0.2c0.4,0.1,0.7,0.3,1,0.5L47.4,137.8z"/>
</g>
<path class="st1" d="M31.5,117c-0.2,0-0.4-0.1-0.6-0.2c-0.3-0.3-0.3-0.8,0-1.1l2.8-2.8l-2.9-2.9c-0.3-0.3-0.3-0.8,0-1.1
	c0.3-0.3,0.8-0.3,1.1,0l4,4l-3.9,3.9C31.9,117,31.7,117,31.5,117z"/>
<path class="st1" d="M13.1,112.8l3.9-3.9c0.3-0.3,0.8-0.3,1.1,0c0.3,0.3,0.3,0.8,0,1.1l-2.8,2.8l2.9,2.9c0.3,0.3,0.3,0.8,0,1.1
	c-0.3,0.3-0.8,0.3-1.1,0L13.1,112.8z"/>
<path class="st1" d="M33.7,125.3c0-1,0-1.3,0-1.7c0-0.3,0-0.6,0-1.3c0-0.2,0-0.4,0-0.6c-0.1-0.9-0.6-1.6-1.4-1.9
	c-0.3-0.1-0.6-0.2-0.9-0.3c-0.7-0.2-2-0.6-3-0.9l-1.1-0.3l-0.1-1.6c0-0.6-0.1-1.2-0.1-1.4c0-1-0.6-1.9-1.6-2.3
	c-0.1,0-0.1-0.1-0.2-0.1c-0.9-0.4-1.9-0.2-2.7,0.4c-1.1,0.8-1.1,2.1-1.1,2.5c0,1.7,0,3.4,0,5.1l0,0.7l-0.3-0.1c-0.1,0-0.1,0-0.2-0.1
	c-1.3-0.3-2.7,0.3-3.2,1.6c-0.3,0.6-0.3,1.3-0.2,1.9c0.2,0.6,0.5,1.1,1,1.5l0,0c0.6,0.5,1.2,0.9,1.8,1.4c1.2,0.9,2.4,1.8,3.5,2.8
	c0.4,0.3,0.8,0.6,1.2,0.8c2,1,3.7,0.3,4.9-0.2C32.4,129.8,33.7,127.8,33.7,125.3z M29.6,129.5c-1.4,0.7-2.5,0.7-3.6,0.2
	c-0.3-0.2-0.6-0.3-0.9-0.6c-1.2-0.9-2.4-1.8-3.5-2.7c-0.6-0.5-1.2-0.9-1.8-1.4l0,0c-0.5-0.4-0.7-1-0.4-1.6c0.3-0.6,0.9-0.9,1.4-0.7
	c0.1,0,0.2,0.1,0.3,0.1c0,0,0,0,0.1,0c0.1,0,0.2,0.1,0.3,0.2l1.8,1.4c0-2.9,0-5.8,0-8.7c0-0.5,0.1-0.9,0.5-1.2
	c0.4-0.3,0.8-0.4,1.2-0.2c0,0,0.1,0,0.1,0l0,0c0.4,0.2,0.7,0.6,0.7,1c0,0.3,0,1,0.1,1.7c0,0.9,0.1,1.9,0.1,2.5
	c0.5,0.1,1.3,0.4,2.1,0.6c1.2,0.4,2.4,0.7,3,0.9c0.2,0,0.5,0.1,0.6,0.2c0.2,0.1,0.5,0.3,0.6,0.8c0,0.1,0,0.3,0,0.4
	c0,0.7,0,1.1,0,1.4c0,0.4,0,0.7,0,1.7C32.2,127.2,31.3,128.7,29.6,129.5z"/>
<g>
	<path class="st1" d="M6.3,191.8c-0.5,0.5-1.1,0.8-1.7,0.8c-0.4,0-0.8-0.1-1.2-0.3c-0.4-0.2-0.7-0.4-0.9-0.7c-0.3-0.3-0.5-0.7-0.6-1
		s-0.2-0.8-0.2-1.2c0-0.4,0.1-0.9,0.2-1.2c0.2-0.4,0.4-0.7,0.6-1c0.3-0.3,0.6-0.5,1-0.7c0.4-0.2,0.8-0.3,1.2-0.3
		c0.6,0,1.1,0.1,1.5,0.4s0.7,0.6,0.9,1l-0.9,0.7c-0.2-0.3-0.4-0.6-0.6-0.7s-0.6-0.3-0.9-0.3c-0.3,0-0.5,0.1-0.7,0.2
		c-0.2,0.1-0.4,0.3-0.5,0.5c-0.2,0.2-0.3,0.4-0.4,0.7c-0.1,0.3-0.1,0.5-0.1,0.8c0,0.3,0,0.6,0.1,0.8c0.1,0.3,0.2,0.5,0.4,0.7
		c0.2,0.2,0.4,0.3,0.6,0.5c0.2,0.1,0.5,0.2,0.7,0.2c0.6,0,1.1-0.3,1.6-0.9v-0.5H5v-0.9h2.3v3.3h-1V191.8z"/>
	<path class="st1" d="M12.9,191.5v1.1H8.5v-6.4h4.4v1.1H9.7v1.5h2.7v1H9.7v1.7H12.9z"/>
	<path class="st1" d="M17.8,187.8c0,0-0.1-0.1-0.2-0.2c-0.1-0.1-0.2-0.1-0.4-0.2c-0.2-0.1-0.3-0.1-0.5-0.2c-0.2,0-0.4-0.1-0.6-0.1
		c-0.3,0-0.6,0.1-0.8,0.2c-0.2,0.1-0.3,0.3-0.3,0.5c0,0.1,0,0.2,0.1,0.3c0.1,0.1,0.2,0.2,0.3,0.2s0.3,0.1,0.5,0.2
		c0.2,0.1,0.4,0.1,0.6,0.2c0.3,0.1,0.6,0.2,0.9,0.3c0.3,0.1,0.5,0.2,0.6,0.4c0.2,0.1,0.3,0.3,0.4,0.5c0.1,0.2,0.1,0.4,0.1,0.7
		c0,0.3-0.1,0.6-0.2,0.9c-0.1,0.2-0.3,0.4-0.5,0.6s-0.5,0.3-0.8,0.3c-0.3,0.1-0.6,0.1-0.9,0.1c-0.5,0-1-0.1-1.4-0.2
		s-0.9-0.3-1.3-0.6l0.5-1.1c0.1,0.1,0.2,0.1,0.3,0.2c0.1,0.1,0.3,0.2,0.5,0.3s0.4,0.2,0.6,0.2c0.2,0.1,0.5,0.1,0.7,0.1
		c0.7,0,1-0.2,1-0.7c0-0.1,0-0.3-0.1-0.4c-0.1-0.1-0.2-0.2-0.3-0.3c-0.1-0.1-0.3-0.1-0.5-0.2c-0.2-0.1-0.4-0.1-0.7-0.2
		c-0.3-0.1-0.6-0.2-0.8-0.3s-0.4-0.2-0.6-0.3c-0.2-0.1-0.3-0.3-0.3-0.5c-0.1-0.2-0.1-0.4-0.1-0.6c0-0.3,0.1-0.6,0.2-0.9
		c0.1-0.3,0.3-0.5,0.5-0.6s0.5-0.3,0.7-0.4c0.3-0.1,0.6-0.1,0.9-0.1c0.5,0,0.9,0.1,1.2,0.2c0.4,0.1,0.7,0.3,1,0.5L17.8,187.8z"/>
	<path class="st1" d="M24.3,187.2h-2v5.3H21v-5.3h-2v-1.1h5.3V187.2z"/>
	<path class="st1" d="M27.9,191.5c0.3,0,0.5-0.1,0.7-0.2s0.4-0.3,0.5-0.5c0.1-0.2,0.2-0.4,0.3-0.7s0.1-0.5,0.1-0.8v-3.3h1.2v3.3
		c0,0.4-0.1,0.8-0.2,1.2c-0.1,0.4-0.3,0.7-0.5,1c-0.2,0.3-0.5,0.5-0.9,0.7c-0.4,0.2-0.8,0.3-1.3,0.3c-0.5,0-0.9-0.1-1.3-0.3
		c-0.4-0.2-0.6-0.4-0.9-0.7c-0.2-0.3-0.4-0.6-0.5-1c-0.1-0.4-0.1-0.8-0.1-1.2v-3.3h1.2v3.3c0,0.3,0,0.5,0.1,0.8
		c0.1,0.2,0.1,0.5,0.3,0.7s0.3,0.3,0.5,0.5S27.6,191.5,27.9,191.5z"/>
	<path class="st1" d="M32,192.6v-6.4h2.8c0.3,0,0.6,0.1,0.8,0.2s0.5,0.3,0.6,0.5c0.2,0.2,0.3,0.4,0.4,0.7c0.1,0.3,0.2,0.5,0.2,0.8
		c0,0.4-0.1,0.8-0.3,1.1c-0.2,0.3-0.5,0.6-0.8,0.7l1.5,2.4h-1.4l-1.3-2.1h-1.2v2.1H32z M33.3,189.3h1.6c0.1,0,0.2,0,0.3-0.1
		c0.1-0.1,0.2-0.1,0.3-0.2c0.1-0.1,0.1-0.2,0.2-0.3s0.1-0.3,0.1-0.4c0-0.1,0-0.3-0.1-0.4s-0.1-0.2-0.2-0.3c-0.1-0.1-0.2-0.2-0.3-0.2
		c-0.1-0.1-0.2-0.1-0.3-0.1h-1.5V189.3z"/>
	<path class="st1" d="M42.6,191.5v1.1h-4.4v-6.4h4.4v1.1h-3.1v1.5h2.7v1h-2.7v1.7H42.6z"/>
	<path class="st1" d="M47.4,187.8c0,0-0.1-0.1-0.2-0.2c-0.1-0.1-0.2-0.1-0.4-0.2c-0.2-0.1-0.3-0.1-0.5-0.2c-0.2,0-0.4-0.1-0.6-0.1
		c-0.3,0-0.6,0.1-0.8,0.2c-0.2,0.1-0.3,0.3-0.3,0.5c0,0.1,0,0.2,0.1,0.3c0.1,0.1,0.2,0.2,0.3,0.2s0.3,0.1,0.5,0.2
		c0.2,0.1,0.4,0.1,0.6,0.2c0.3,0.1,0.6,0.2,0.9,0.3c0.3,0.1,0.5,0.2,0.6,0.4c0.2,0.1,0.3,0.3,0.4,0.5c0.1,0.2,0.1,0.4,0.1,0.7
		c0,0.3-0.1,0.6-0.2,0.9c-0.1,0.2-0.3,0.4-0.5,0.6s-0.5,0.3-0.8,0.3c-0.3,0.1-0.6,0.1-0.9,0.1c-0.5,0-1-0.1-1.4-0.2
		s-0.9-0.3-1.3-0.6l0.5-1.1c0.1,0.1,0.2,0.1,0.3,0.2c0.1,0.1,0.3,0.2,0.5,0.3s0.4,0.2,0.6,0.2c0.2,0.1,0.5,0.1,0.7,0.1
		c0.7,0,1-0.2,1-0.7c0-0.1,0-0.3-0.1-0.4c-0.1-0.1-0.2-0.2-0.3-0.3c-0.1-0.1-0.3-0.1-0.5-0.2c-0.2-0.1-0.4-0.1-0.7-0.2
		c-0.3-0.1-0.6-0.2-0.8-0.3s-0.4-0.2-0.6-0.3c-0.2-0.1-0.3-0.3-0.3-0.5c-0.1-0.2-0.1-0.4-0.1-0.6c0-0.3,0.1-0.6,0.2-0.9
		c0.1-0.3,0.3-0.5,0.5-0.6s0.5-0.3,0.7-0.4c0.3-0.1,0.6-0.1,0.9-0.1c0.5,0,0.9,0.1,1.2,0.2c0.4,0.1,0.7,0.3,1,0.5L47.4,187.8z"/>
</g>
<path class="st1" d="M31.5,167c-0.2,0-0.4-0.1-0.6-0.2c-0.3-0.3-0.3-0.8,0-1.1l2.8-2.8l-2.9-2.9c-0.3-0.3-0.3-0.8,0-1.1
	c0.3-0.3,0.8-0.3,1.1,0l4,4l-3.9,3.9C31.9,167,31.7,167,31.5,167z"/>
<path class="st1" d="M13.1,162.8l3.9-3.9c0.3-0.3,0.8-0.3,1.1,0c0.3,0.3,0.3,0.8,0,1.1l-2.8,2.8l2.9,2.9c0.3,0.3,0.3,0.8,0,1.1
	c-0.3,0.3-0.8,0.3-1.1,0L13.1,162.8z"/>
<path class="st1" d="M33.7,175.3c0-1,0-1.3,0-1.7c0-0.3,0-0.6,0-1.3c0-0.2,0-0.4,0-0.6c-0.1-0.9-0.6-1.6-1.4-1.9
	c-0.3-0.1-0.6-0.2-0.9-0.3c-0.7-0.2-2-0.6-3-0.9l-1.1-0.3l-0.1-1.6c0-0.6-0.1-1.2-0.1-1.4c0-1-0.6-1.9-1.6-2.3
	c-0.1,0-0.1-0.1-0.2-0.1c-0.9-0.4-1.9-0.2-2.7,0.4c-1.1,0.8-1.1,2.1-1.1,2.5c0,1.7,0,3.4,0,5.1l0,0.7l-0.3-0.1c-0.1,0-0.1,0-0.2-0.1
	c-1.3-0.3-2.7,0.3-3.2,1.6c-0.3,0.6-0.3,1.3-0.2,1.9c0.2,0.6,0.5,1.1,1,1.5l0,0c0.6,0.5,1.2,0.9,1.8,1.4c1.2,0.9,2.4,1.8,3.5,2.8
	c0.4,0.3,0.8,0.6,1.2,0.8c2,1,3.7,0.3,4.9-0.2C32.4,179.8,33.7,177.8,33.7,175.3z M29.6,179.5c-1.4,0.7-2.5,0.7-3.6,0.2
	c-0.3-0.2-0.6-0.3-0.9-0.6c-1.2-0.9-2.4-1.8-3.5-2.7c-0.6-0.5-1.2-0.9-1.8-1.4l0,0c-0.5-0.4-0.7-1-0.4-1.6c0.3-0.6,0.9-0.9,1.4-0.7
	c0.1,0,0.2,0.1,0.3,0.1c0,0,0,0,0.1,0c0.1,0,0.2,0.1,0.3,0.2l1.8,1.4c0-2.9,0-5.8,0-8.7c0-0.5,0.1-0.9,0.5-1.2
	c0.4-0.3,0.8-0.4,1.2-0.2c0,0,0.1,0,0.1,0l0,0c0.4,0.2,0.7,0.6,0.7,1c0,0.3,0,1,0.1,1.7c0,0.9,0.1,1.9,0.1,2.5
	c0.5,0.1,1.3,0.4,2.1,0.6c1.2,0.4,2.4,0.7,3,0.9c0.2,0,0.5,0.1,0.6,0.2c0.2,0.1,0.5,0.3,0.6,0.8c0,0.1,0,0.3,0,0.4
	c0,0.7,0,1.1,0,1.4c0,0.4,0,0.7,0,1.7C32.2,177.2,31.3,178.7,29.6,179.5z"/>
</svg>
