<svg xmlns="http://www.w3.org/2000/svg" xmlns:xlink="http://www.w3.org/1999/xlink" version="1.1" x="0px" y="0px" viewBox="0 0 100 100" enable-background="new 0 0 100 100" xml:space="preserve"><g><g><path fill="#ffffff" d="M21.93,37.62l-7.22,25.29l7.23-25.28L21.93,37.62z"/><path d="M8.02,73.99c0,0.02,0.011,0.029,0.011,0.04c0.029,0.05,0.06,0.09,0.1,0.14C8.09,74.12,8.05,74.06,8.02,73.99z     M21.93,37.62l-7.22,25.29l7.23-25.28L21.93,37.62z"/></g><g><path d="M81.05,33.52v0.01l7.2-5.4v-0.01L81.05,33.52z"/></g><g><path fill="#ffffff" d="M81.05,33.52v0.01l7.2-5.4v-0.01L81.05,33.52z"/><path d="M92.24,23.92c-0.01-0.06-0.021-0.12-0.03-0.18c-0.02-0.11-0.05-0.21-0.09-0.31c-0.021-0.07-0.05-0.13-0.08-0.19    c-0.04-0.09-0.09-0.17-0.15-0.25c-0.04-0.07-0.09-0.13-0.149-0.19c-0.05-0.06-0.11-0.12-0.181-0.18    c-0.119-0.11-0.27-0.2-0.42-0.28L50.9,2.22C50.87,2.2,50.84,2.19,50.81,2.18c-0.029-0.02-0.06-0.03-0.079-0.04    c-0.021-0.01-0.04-0.01-0.061-0.02c-0.03-0.01-0.06-0.02-0.09-0.03c-0.04-0.02-0.08-0.02-0.12-0.03    c-0.02-0.01-0.05-0.02-0.08-0.02c0,0-0.01,0-0.02,0C50.24,2.01,50.12,2,50,2s-0.24,0.01-0.36,0.04c-0.01,0-0.01,0-0.02,0    c-0.03,0-0.05,0.01-0.08,0.02c-0.04,0.01-0.08,0.01-0.12,0.03c-0.03,0.01-0.06,0.02-0.09,0.03c-0.021,0.01-0.04,0.01-0.061,0.02    c-0.029,0.01-0.06,0.02-0.079,0.04c-0.03,0.01-0.051,0.02-0.08,0.03L49.1,2.22L8.86,22.34c-0.15,0.08-0.301,0.17-0.42,0.28    C8.37,22.68,8.31,22.74,8.26,22.8C8.2,22.86,8.15,22.92,8.11,22.99C8.05,23.07,8,23.15,7.96,23.24c-0.03,0.06-0.06,0.12-0.08,0.19    c-0.04,0.1-0.07,0.2-0.09,0.31c-0.01,0.06-0.021,0.12-0.03,0.18c-0.01,0.07-0.01,0.13-0.01,0.2V73c0,0.09,0.01,0.19,0.02,0.28    c0,0.01,0,0.01,0,0.02c0.011,0.061,0.021,0.11,0.04,0.16c0,0.021,0,0.04,0.011,0.06c0,0.021,0.01,0.03,0.01,0.04    c0.02,0.07,0.05,0.141,0.08,0.21c0,0.021,0.01,0.04,0.02,0.051c0.011,0.04,0.03,0.069,0.051,0.1C7.99,73.95,8,73.97,8.02,73.99    c0.03,0.069,0.07,0.13,0.11,0.18c0.101,0.15,0.23,0.28,0.37,0.39c0.06,0.051,0.12,0.091,0.18,0.12    c0.051,0.04,0.101,0.07,0.16,0.101c0.01,0.01,0.01,0.01,0.021,0.01L49,97.73l0.01,0.01C49.32,97.91,49.66,98,50,98    c0.35,0,0.69-0.09,1-0.27l40.14-22.94c0.15-0.07,0.301-0.17,0.42-0.28c0.07-0.06,0.141-0.13,0.2-0.2    c0.05-0.05,0.09-0.109,0.13-0.17c0.021-0.02,0.03-0.04,0.051-0.069c0.02-0.03,0.029-0.051,0.04-0.08    c0.029-0.05,0.06-0.11,0.09-0.17c0.05-0.11,0.09-0.221,0.12-0.34c0.02-0.07,0.029-0.141,0.04-0.211c0.01-0.09,0.02-0.18,0.02-0.27    V24.12C92.25,24.05,92.25,23.99,92.24,23.92z M86.45,24.47l-7.51,5.64L60.13,11.3L86.45,24.47z M50,6.83l23.92,23.92H26.08    L50,6.83z M39.87,11.3l-18.8,18.81l-7.521-5.64L39.87,11.3z M11.75,28.12l7.2,5.4v0.01l-7.2,25.19V28.12z M14.71,62.91l7.22-25.29    l0.011,0.01L46.02,76.16L12.3,71.34L14.71,62.91z M48,92.55L19.84,76.46L48,80.48V92.55z M50,74.97L37.09,54.32L24.86,34.75H75.14    L50,74.97z M52,92.55V80.48l28.16-4.021L52,92.55z M53.98,76.16L78.06,37.63l8.03,28.09l1.61,5.62L53.98,76.16z M88.25,58.72    l-7.2-25.19v-0.01l7.2-5.4V58.72z"/></g><g><path d="M11.75,28.12v0.01l7.2,5.39L11.75,28.12z"/></g><g><path fill="#000000" d="M11.75,28.12v0.01l7.2,5.39L11.75,28.12z"/><path d="M8.02,73.99C8,73.97,7.99,73.95,7.98,73.92c0.01,0.04,0.029,0.07,0.05,0.11c0.029,0.05,0.06,0.09,0.1,0.14    C8.09,74.12,8.05,74.06,8.02,73.99z"/></g></g></svg>